<?xml version="1.0" encoding="UTF-8" standalone="no"?>
<!-- Created with Inkscape (http://www.inkscape.org/) -->

<svg
   width="6.3519578mm"
   height="5.2916665mm"
   viewBox="0 0 6.3519578 5.2916665"
   version="1.1"
   id="svg1"
   inkscape:version="1.4 (86a8ad7, 2024-10-11)"
   sodipodi:docname="cart.svg"
   xmlns:inkscape="http://www.inkscape.org/namespaces/inkscape"
   xmlns:sodipodi="http://sodipodi.sourceforge.net/DTD/sodipodi-0.dtd"
   xmlns="http://www.w3.org/2000/svg"
   xmlns:svg="http://www.w3.org/2000/svg">
  <sodipodi:namedview
     id="namedview1"
     pagecolor="#ffffff"
     bordercolor="#000000"
     borderopacity="0.25"
     inkscape:showpageshadow="2"
     inkscape:pageopacity="0.0"
     inkscape:pagecheckerboard="true"
     inkscape:deskcolor="#d1d1d1"
     inkscape:document-units="mm"
     inkscape:zoom="31.163807"
     inkscape:cx="11.439552"
     inkscape:cy="11.27911"
     inkscape:window-width="1920"
     inkscape:window-height="991"
     inkscape:window-x="-9"
     inkscape:window-y="-9"
     inkscape:window-maximized="1"
     inkscape:current-layer="svg1" />
  <defs
     id="defs1">
    <linearGradient
       id="paint0_linear_15_23"
       x1="274"
       y1="295"
       x2="285"
       y2="311"
       gradientUnits="userSpaceOnUse"
       gradientTransform="matrix(0.26458333,0,0,0.26458333,-70.370677,-77.00085)">
      <stop
         stop-color="#EBFF00"
         id="stop20" />
      <stop
         offset="1"
         stop-color="#FF70D9"
         id="stop21" />
    </linearGradient>
  </defs>
  <path
     fill-rule="evenodd"
     clip-rule="evenodd"
     d="m 2.4430566,4.810654 c 0,-0.2669645 -0.2175934,-0.481277 -0.4886325,-0.481277 -0.2710127,0 -0.4886061,0.2143125 -0.4886061,0.481277 0,0.2667 0.2175934,0.4810125 0.4886061,0.4810125 0.2710391,0 0.4886325,-0.2143125 0.4886325,-0.4810125 z m 3.4202951,0 c 0,-0.2669645 -0.2175933,-0.481277 -0.4886325,-0.481277 -0.2710391,0 -0.488606,0.2143125 -0.488606,0.481277 0,0.2667 0.2175669,0.4810125 0.488606,0.4810125 0.2710392,0 0.4886325,-0.2143125 0.4886325,-0.4810125 z M 6.3519578,0.72151874 c 0,-0.13149791 -0.1107017,-0.24050625 -0.2443163,-0.24050625 H 1.5231003 C 1.484921,0.30056666 1.4810845,0 1.2215283,0 H 0.24428979 C 0.11070167,0 0,0.10900833 0,0.24050625 0,0.37200416 0.11070167,0.48101249 0.24428979,0.48101249 H 1.0230378 l 0.67564,3.09297911 C 1.6452318,3.6829999 1.465818,3.972454 1.465818,4.0888707 c 0,0.1317625 0.1107017,0.2405063 0.2443163,0.2405063 h 3.9089012 c 0.1336146,0 0.2443162,-0.1087438 0.2443162,-0.2405063 0,-0.1314979 -0.1107016,-0.2405062 -0.2443162,-0.2405062 H 2.1071416 c 0.038153,-0.075142 0.091625,-0.1539875 0.091625,-0.2405063 0,-0.086254 -0.034369,-0.1801812 -0.049636,-0.2629958 L 6.1343644,2.8863395 C 6.2603326,2.8712582 6.3519578,2.7659541 6.3519578,2.6458332 Z"
     fill="#ffffff"
     id="path6"
     style="stroke-width:0.264583" />
</svg>
