<?xml version="1.0" encoding="UTF-8" standalone="no"?>
<!-- Created with Inkscape (http://www.inkscape.org/) -->

<svg
   width="27.715183mm"
   height="9.6856852mm"
   viewBox="0 0 27.715183 9.6856852"
   version="1.1"
   id="svg1"
   inkscape:version="1.4 (86a8ad7, 2024-10-11)"
   sodipodi:docname="LOGO.svg"
   xmlns:inkscape="http://www.inkscape.org/namespaces/inkscape"
   xmlns:sodipodi="http://sodipodi.sourceforge.net/DTD/sodipodi-0.dtd"
   xmlns="http://www.w3.org/2000/svg"
   xmlns:svg="http://www.w3.org/2000/svg">
  <sodipodi:namedview
     id="namedview1"
     pagecolor="#ffffff"
     bordercolor="#000000"
     borderopacity="0.25"
     inkscape:showpageshadow="2"
     inkscape:pageopacity="0.0"
     inkscape:pagecheckerboard="true"
     inkscape:deskcolor="#d1d1d1"
     inkscape:document-units="mm"
     inkscape:zoom="0.68862935"
     inkscape:cx="269.37568"
     inkscape:cy="228.7152"
     inkscape:window-width="1920"
     inkscape:window-height="991"
     inkscape:window-x="-9"
     inkscape:window-y="-9"
     inkscape:window-maximized="1"
     inkscape:current-layer="layer1" />
  <defs
     id="defs1" />
  <path
     d="m 23.826601,1.3596185 c -0.769144,-5.3e-5 -1.521089,0.197564 -2.160587,0.567822 -0.639498,0.370258 -1.137973,0.896567 -1.432455,1.512332 -0.294216,0.615765 -0.371475,1.293363 -0.221191,1.947069 0.149754,0.653732 0.520171,1.25423 1.064154,1.725559 0.543719,0.471302 1.236662,0.792295 1.991254,0.922338 0.754063,0.130042 1.535906,0.06334 2.246842,-0.191691 0.710406,-0.255085 1.317625,-0.687017 1.744927,-1.241213 0.427566,-0.554196 0.655637,-1.205733 0.655637,-1.872271 -0.0013,-0.893392 -0.411162,-1.749901 -1.140089,-2.381647 -0.728927,-0.631772 -1.717411,-0.987187 -2.748492,-0.988298 z m 0,5.442638 c -0.473075,5.3e-5 -0.935302,-0.121471 -1.328737,-0.349197 -0.393436,-0.227701 -0.700088,-0.551392 -0.881063,-0.930117 -0.181239,-0.378724 -0.2286,-0.795496 -0.13626,-1.197583 0.09208,-0.402061 0.319881,-0.771393 0.654314,-1.061297 0.334698,-0.289904 0.760942,-0.487336 1.224757,-0.567319 0.464079,-0.08001 0.944827,-0.03897 1.381918,0.117898 0.437092,0.156871 0.810684,0.422539 1.073679,0.763402 0.262467,0.340863 0.402961,0.741601 0.402961,1.15152 -0.0011,0.549433 -0.253206,1.076087 -0.701675,1.464601 -0.448204,0.388514 -1.055952,0.607192 -1.689894,0.608092 z m -8.902435,-5.442638 c -0.769144,0 -1.52109,0.197644 -2.160588,0.567954 -0.639498,0.370285 -1.137973,0.896594 -1.432189,1.512385 -0.294217,0.615791 -0.371211,1.293336 -0.221192,1.947042 0.150019,0.653706 0.520436,1.254178 1.064154,1.725481 0.543984,0.471302 1.236663,0.792241 1.991254,0.922284 0.754327,0.130016 1.536171,0.06332 2.246842,-0.191743 0.710406,-0.255085 1.31789,-0.687017 1.745192,-1.241214 0.427302,-0.554196 0.655373,-1.205732 0.655373,-1.872244 -0.0013,-0.893445 -0.411428,-1.749981 -1.140355,-2.381753 -0.729191,-0.631746 -1.71741,-0.987134 -2.748491,-0.988192 z m 0,5.442638 c -0.440796,1.85e-4 -0.872861,-0.105146 -1.249098,-0.304403 -0.375973,-0.199258 -0.681038,-0.484664 -0.881592,-0.824733 -0.200819,-0.340069 -0.289189,-0.721572 -0.255323,-1.10236 0.03387,-0.380815 0.188384,-0.746152 0.446617,-1.055661 0.258233,-0.309483 0.610129,-0.551127 1.016794,-0.698262 0.406664,-0.147135 0.852487,-0.193993 1.287991,-0.13544 0.435505,0.05855 0.844021,0.220239 1.180042,0.467227 0.336285,0.247015 0.58711,0.569701 0.724958,0.932445 h -2.270389 v 1.297014 h 2.270389 c -0.157956,0.413914 -0.462227,0.774277 -0.869685,1.029891 -0.407458,0.25564 -0.897731,0.393567 -1.400704,0.394282 z"
     fill="#ff70d9"
     id="path4"
     style="stroke-width:0.264583" />
  <path
     d="m 8.5794585,7.6015355 c -0.175155,-0.234368 -0.434182,-0.414575 -0.810155,-0.355811 -0.86942,0.13581 -0.407458,-0.543296 -1.032404,-0.271648 -0.499798,0.217329 -0.86016,0.833041 -0.9779,1.113737 -0.03625,-0.172058 -0.173831,-0.548719 -0.43471,-0.679106 -0.325835,-0.162983 -0.434499,0.108664 -0.624655,-0.162983 -0.19013,-0.271648 -0.19013,-0.651934 -0.353113,-1.032246 -0.162983,-0.380285 0.543269,-0.950727 0.977768,-0.733425 0.43471,0.217329 0.706437,0.08149 0.92366,0.407459 0.217488,0.325966 0.48895,0.733425 0.48895,-0.407459 0,-1.140883 0.543454,-1.657006 0.787929,-1.629833 0.244475,0.02717 1.004888,-0.244528 0.869157,-0.516123 -0.135732,-0.271568 -0.869157,-0.407458 -0.869157,-0.651933 0,-0.244475 0.325967,-0.760518 0,-1.004993 -0.325966,-0.244475 -1.140883,-0.733425 -1.765829,-0.679106 -0.624681,0.05432 -0.817218,0.298979 -0.817218,0.516281 0,0.217302 0.817218,0.62484 0.382508,0.896329 -0.434499,0.271489 -1.84703,0.705988 -1.84703,0.271489 0,-0.434472 -0.08149,-1.358053 0.190156,-1.358053 0.271648,0 0.353139,-0.679106 0.516123,-0.651934 0.162983,0.02717 0.842089,-0.271462 1.140751,-0.135731 0.09181,0.04162 0.392641,-0.03675 0.731573,-0.177985 m 2.523596,7.243074 c 0.570441,-0.771366 0.907785,-1.725639 0.907785,-2.758678 0,-2.145374 -1.454679,-3.95097 -3.431381,-4.484396 m 2.523596,7.243074 c -0.845873,1.143953 -2.204509,1.885712 -3.736605,1.885712 -0.272759,0 -0.539988,-0.02349 -0.799835,-0.06861 m 0,0 c 0.03508,-0.202062 0.08102,-0.369041 0.14052,-0.461592 0.244475,-0.380286 1.059259,-0.108665 1.140751,-0.298794 0.08149,-0.190156 -0.271516,-0.407459 -0.624655,-0.570442 -0.353113,-0.162983 -0.950727,-0.325967 -1.032219,-1.113737 -0.08149,-0.787744 -0.461777,-0.651933 -0.543269,-0.760598 -0.08149,-0.108638 -1.032245,-0.407458 -1.331119,-0.950727 -0.298899,-0.543269 8e-5,-1.46685 0,-1.711325 -7.9e-5,-0.172826 -0.749405,-0.358325 -1.254892,-0.455374 m 3.504883,6.322589 c -2.183898,-0.379095 -3.844581,-2.283513 -3.844581,-4.575784 0,-0.617881 0.120676,-1.207584 0.339698,-1.746805 m 0,0 c 0.690272,-1.699366 2.357543,-2.897611 4.304718,-2.897611 0.419788,0 0.826452,0.05567 1.213009,0.16002"
     stroke="#ff70d9"
     stroke-width="0.396875"
     stroke-linecap="square"
     stroke-linejoin="round"
     id="path5" />
  <g
     inkscape:groupmode="layer"
     id="layer1"
     inkscape:label="Layer 1"
     style="opacity:0" />
</svg>
